<mxfile host="app.diagrams.net" modified="2022-11-23T06:25:49.581Z" agent="5.0 (Windows NT 10.0; Win64; x64) AppleWebKit/537.36 (KHTML, like Gecko) Chrome/107.0.0.0 Safari/537.36" etag="gfWjZ_gESAnrOqnDmZxc" version="20.5.3" type="github">
  <diagram id="aC0cHqoq0AYvwJq9NSrj" name="第 1 页">
    <mxGraphModel dx="1595" dy="406" grid="1" gridSize="10" guides="1" tooltips="1" connect="1" arrows="1" fold="1" page="1" pageScale="1" pageWidth="827" pageHeight="1169" math="0" shadow="0">
      <root>
        <mxCell id="0" />
        <mxCell id="1" parent="0" />
        <mxCell id="LX_nnY6aulENI7ctJMNe-6" value="保持会话" style="edgeStyle=orthogonalEdgeStyle;rounded=0;orthogonalLoop=1;jettySize=auto;html=1;exitX=1.267;exitY=0.05;exitDx=0;exitDy=0;exitPerimeter=0;" parent="1" source="LX_nnY6aulENI7ctJMNe-18" target="LX_nnY6aulENI7ctJMNe-3" edge="1">
          <mxGeometry relative="1" as="geometry">
            <Array as="points">
              <mxPoint x="465" y="287" />
              <mxPoint x="465" y="280" />
            </Array>
          </mxGeometry>
        </mxCell>
        <mxCell id="LX_nnY6aulENI7ctJMNe-2" value="zaip-aic-connectionws-service" style="shape=umlLifeline;perimeter=lifelinePerimeter;whiteSpace=wrap;html=1;container=1;collapsible=0;recursiveResize=0;outlineConnect=0;" parent="1" vertex="1">
          <mxGeometry x="330" y="70" width="100" height="580" as="geometry" />
        </mxCell>
        <mxCell id="LX_nnY6aulENI7ctJMNe-3" value="zaip-aic-session-service" style="shape=umlLifeline;perimeter=lifelinePerimeter;whiteSpace=wrap;html=1;container=1;collapsible=0;recursiveResize=0;outlineConnect=0;" parent="1" vertex="1">
          <mxGeometry x="710" y="70" width="100" height="580" as="geometry" />
        </mxCell>
        <mxCell id="LX_nnY6aulENI7ctJMNe-14" value="" style="html=1;points=[];perimeter=orthogonalPerimeter;" parent="LX_nnY6aulENI7ctJMNe-3" vertex="1">
          <mxGeometry x="45" y="210" width="10" height="120" as="geometry" />
        </mxCell>
        <mxCell id="LX_nnY6aulENI7ctJMNe-15" value="cid+sessionId组装redisKey" style="edgeStyle=orthogonalEdgeStyle;rounded=0;orthogonalLoop=1;jettySize=auto;html=1;exitX=1.167;exitY=0.192;exitDx=0;exitDy=0;exitPerimeter=0;" parent="LX_nnY6aulENI7ctJMNe-3" source="LX_nnY6aulENI7ctJMNe-14" target="LX_nnY6aulENI7ctJMNe-14" edge="1">
          <mxGeometry y="75" relative="1" as="geometry">
            <Array as="points">
              <mxPoint x="80" y="233" />
              <mxPoint x="80" y="270" />
            </Array>
            <mxPoint as="offset" />
          </mxGeometry>
        </mxCell>
        <mxCell id="LX_nnY6aulENI7ctJMNe-21" value="设置缓存时间 失效时间 5分钟" style="edgeStyle=orthogonalEdgeStyle;rounded=0;orthogonalLoop=1;jettySize=auto;html=1;" parent="LX_nnY6aulENI7ctJMNe-3" source="LX_nnY6aulENI7ctJMNe-14" edge="1">
          <mxGeometry x="0.125" y="80" relative="1" as="geometry">
            <mxPoint x="55" y="310" as="targetPoint" />
            <Array as="points">
              <mxPoint x="80" y="280" />
              <mxPoint x="80" y="310" />
            </Array>
            <mxPoint as="offset" />
          </mxGeometry>
        </mxCell>
        <mxCell id="YJgOyWVf6AvaoRLB0wFS-2" value="" style="shape=umlDestroy;whiteSpace=wrap;html=1;strokeWidth=3;" parent="LX_nnY6aulENI7ctJMNe-3" vertex="1">
          <mxGeometry x="-515" y="560" width="30" height="30" as="geometry" />
        </mxCell>
        <mxCell id="W0oWPmlOotF5yfCjIIyB-30" value="" style="shape=umlDestroy;whiteSpace=wrap;html=1;strokeWidth=3;" parent="LX_nnY6aulENI7ctJMNe-3" vertex="1">
          <mxGeometry x="-735" y="560" width="30" height="30" as="geometry" />
        </mxCell>
        <mxCell id="W0oWPmlOotF5yfCjIIyB-31" value="" style="shape=umlDestroy;whiteSpace=wrap;html=1;strokeWidth=3;" parent="LX_nnY6aulENI7ctJMNe-3" vertex="1">
          <mxGeometry x="-345" y="560" width="30" height="30" as="geometry" />
        </mxCell>
        <mxCell id="W0oWPmlOotF5yfCjIIyB-32" value="" style="shape=umlDestroy;whiteSpace=wrap;html=1;strokeWidth=3;" parent="LX_nnY6aulENI7ctJMNe-3" vertex="1">
          <mxGeometry x="-145" y="560" width="30" height="30" as="geometry" />
        </mxCell>
        <mxCell id="W0oWPmlOotF5yfCjIIyB-33" value="" style="shape=umlDestroy;whiteSpace=wrap;html=1;strokeWidth=3;" parent="LX_nnY6aulENI7ctJMNe-3" vertex="1">
          <mxGeometry x="35" y="560" width="30" height="30" as="geometry" />
        </mxCell>
        <mxCell id="LX_nnY6aulENI7ctJMNe-4" value="zaip-aic-dispatcher-service" style="shape=umlLifeline;perimeter=lifelinePerimeter;whiteSpace=wrap;html=1;container=1;collapsible=0;recursiveResize=0;outlineConnect=0;" parent="1" vertex="1">
          <mxGeometry x="530" y="70" width="100" height="580" as="geometry" />
        </mxCell>
        <mxCell id="LX_nnY6aulENI7ctJMNe-1" value="zaip-aic-web-service" style="shape=umlLifeline;perimeter=lifelinePerimeter;whiteSpace=wrap;html=1;container=1;collapsible=0;recursiveResize=0;outlineConnect=0;" parent="1" vertex="1">
          <mxGeometry x="140" y="70" width="140" height="580" as="geometry" />
        </mxCell>
        <mxCell id="LX_nnY6aulENI7ctJMNe-7" value="" style="html=1;points=[];perimeter=orthogonalPerimeter;" parent="LX_nnY6aulENI7ctJMNe-1" vertex="1">
          <mxGeometry x="65" y="80" width="10" height="330" as="geometry" />
        </mxCell>
        <mxCell id="LX_nnY6aulENI7ctJMNe-9" value="&#xa;&lt;span style=&quot;color: rgb(0, 0, 0); font-family: Helvetica; font-size: 12px; font-style: normal; font-variant-ligatures: normal; font-variant-caps: normal; font-weight: 400; letter-spacing: normal; orphans: 2; text-align: center; text-indent: 0px; text-transform: none; widows: 2; word-spacing: 0px; -webkit-text-stroke-width: 0px; background-color: rgb(248, 249, 250); text-decoration-thickness: initial; text-decoration-style: initial; text-decoration-color: initial; float: none; display: inline !important;&quot;&gt;从cookie中获取cid&lt;/span&gt;&#xa;&#xa;" style="edgeStyle=orthogonalEdgeStyle;rounded=0;orthogonalLoop=1;jettySize=auto;html=1;" parent="LX_nnY6aulENI7ctJMNe-1" source="LX_nnY6aulENI7ctJMNe-7" target="LX_nnY6aulENI7ctJMNe-7" edge="1">
          <mxGeometry x="0.2222" y="60" relative="1" as="geometry">
            <Array as="points">
              <mxPoint x="100" y="90" />
              <mxPoint x="100" y="130" />
            </Array>
            <mxPoint as="offset" />
          </mxGeometry>
        </mxCell>
        <mxCell id="LX_nnY6aulENI7ctJMNe-17" value="获取请求参数sessionId,&lt;br&gt;校验非空&lt;br&gt;" style="edgeStyle=orthogonalEdgeStyle;rounded=0;orthogonalLoop=1;jettySize=auto;html=1;" parent="LX_nnY6aulENI7ctJMNe-1" edge="1">
          <mxGeometry x="-0.0667" y="70" relative="1" as="geometry">
            <mxPoint x="75" y="150" as="sourcePoint" />
            <mxPoint x="75" y="180" as="targetPoint" />
            <Array as="points">
              <mxPoint x="100" y="150" />
              <mxPoint x="100" y="180" />
            </Array>
            <mxPoint as="offset" />
          </mxGeometry>
        </mxCell>
        <mxCell id="LX_nnY6aulENI7ctJMNe-27" value="处理返回结果" style="edgeStyle=orthogonalEdgeStyle;rounded=0;orthogonalLoop=1;jettySize=auto;html=1;entryX=0.967;entryY=0.982;entryDx=0;entryDy=0;entryPerimeter=0;" parent="LX_nnY6aulENI7ctJMNe-1" target="LX_nnY6aulENI7ctJMNe-7" edge="1">
          <mxGeometry x="0.1008" y="40" relative="1" as="geometry">
            <Array as="points">
              <mxPoint x="75" y="370" />
              <mxPoint x="120" y="370" />
              <mxPoint x="120" y="404" />
            </Array>
            <mxPoint as="offset" />
            <mxPoint x="75" y="370" as="sourcePoint" />
          </mxGeometry>
        </mxCell>
        <mxCell id="LX_nnY6aulENI7ctJMNe-18" value="" style="html=1;points=[];perimeter=orthogonalPerimeter;" parent="LX_nnY6aulENI7ctJMNe-1" vertex="1">
          <mxGeometry x="70" y="210" width="10" height="130" as="geometry" />
        </mxCell>
        <mxCell id="LX_nnY6aulENI7ctJMNe-24" value="return" style="html=1;verticalAlign=bottom;endArrow=open;dashed=1;endSize=8;rounded=0;" parent="1" edge="1">
          <mxGeometry relative="1" as="geometry">
            <mxPoint x="760" y="400" as="sourcePoint" />
            <mxPoint x="220" y="400" as="targetPoint" />
          </mxGeometry>
        </mxCell>
        <mxCell id="LX_nnY6aulENI7ctJMNe-28" value="return" style="html=1;verticalAlign=bottom;endArrow=open;dashed=1;endSize=8;rounded=0;" parent="1" target="W0oWPmlOotF5yfCjIIyB-13" edge="1">
          <mxGeometry relative="1" as="geometry">
            <mxPoint x="210" y="480" as="sourcePoint" />
            <mxPoint x="130" y="480" as="targetPoint" />
          </mxGeometry>
        </mxCell>
        <mxCell id="W0oWPmlOotF5yfCjIIyB-14" style="edgeStyle=orthogonalEdgeStyle;rounded=0;orthogonalLoop=1;jettySize=auto;html=1;entryX=-0.267;entryY=0.007;entryDx=0;entryDy=0;entryPerimeter=0;" parent="1" source="W0oWPmlOotF5yfCjIIyB-9" target="W0oWPmlOotF5yfCjIIyB-13" edge="1">
          <mxGeometry relative="1" as="geometry">
            <Array as="points">
              <mxPoint x="-120" y="152" />
              <mxPoint x="-120" y="152" />
            </Array>
          </mxGeometry>
        </mxCell>
        <mxCell id="YJgOyWVf6AvaoRLB0wFS-1" value="保持会话" style="edgeLabel;html=1;align=center;verticalAlign=middle;resizable=0;points=[];" parent="W0oWPmlOotF5yfCjIIyB-14" vertex="1" connectable="0">
          <mxGeometry x="-0.1989" y="-4" relative="1" as="geometry">
            <mxPoint as="offset" />
          </mxGeometry>
        </mxCell>
        <mxCell id="W0oWPmlOotF5yfCjIIyB-9" value="Actor" style="shape=umlActor;verticalLabelPosition=bottom;verticalAlign=top;html=1;" parent="1" vertex="1">
          <mxGeometry x="-190" y="120" width="30" height="60" as="geometry" />
        </mxCell>
        <mxCell id="W0oWPmlOotF5yfCjIIyB-11" value="IM-H5" style="shape=umlLifeline;perimeter=lifelinePerimeter;whiteSpace=wrap;html=1;container=1;collapsible=0;recursiveResize=0;outlineConnect=0;" parent="1" vertex="1">
          <mxGeometry x="-60" y="70" width="100" height="580" as="geometry" />
        </mxCell>
        <mxCell id="W0oWPmlOotF5yfCjIIyB-13" value="" style="html=1;points=[];perimeter=orthogonalPerimeter;" parent="W0oWPmlOotF5yfCjIIyB-11" vertex="1">
          <mxGeometry x="45" y="80" width="10" height="330" as="geometry" />
        </mxCell>
        <mxCell id="W0oWPmlOotF5yfCjIIyB-15" style="edgeStyle=orthogonalEdgeStyle;rounded=0;orthogonalLoop=1;jettySize=auto;html=1;entryX=0;entryY=0.013;entryDx=0;entryDy=0;entryPerimeter=0;" parent="1" source="W0oWPmlOotF5yfCjIIyB-13" target="LX_nnY6aulENI7ctJMNe-7" edge="1">
          <mxGeometry relative="1" as="geometry">
            <Array as="points">
              <mxPoint x="50" y="154" />
              <mxPoint x="50" y="154" />
            </Array>
          </mxGeometry>
        </mxCell>
        <mxCell id="W0oWPmlOotF5yfCjIIyB-16" value="保持会话" style="edgeLabel;html=1;align=center;verticalAlign=middle;resizable=0;points=[];" parent="W0oWPmlOotF5yfCjIIyB-15" vertex="1" connectable="0">
          <mxGeometry x="-0.2" y="-2" relative="1" as="geometry">
            <mxPoint x="11" as="offset" />
          </mxGeometry>
        </mxCell>
        <mxCell id="CD4AQDRJlFPRxX8Qbltg-1" value="参数cid,sessionId" style="text;html=1;strokeColor=none;fillColor=none;align=center;verticalAlign=middle;whiteSpace=wrap;rounded=0;" vertex="1" parent="1">
          <mxGeometry x="460" y="230" width="60" height="30" as="geometry" />
        </mxCell>
      </root>
    </mxGraphModel>
  </diagram>
</mxfile>
